<svg width="120" height="93" viewBox="0 0 120 93" fill="#616161" xmlns="http://www.w3.org/2000/svg">
<path d="M4 22.5C2.067 22.5 0.5 24.067 0.5 26C0.5 27.933 2.067 29.5 4 29.5V26V22.5ZM118.475 28.4749C119.842 27.108 119.842 24.892 118.475 23.5251L96.201 1.25126C94.8342 -0.115572 92.6181 -0.115572 91.2513 1.25126C89.8844 2.6181 89.8844 4.83418 91.2513 6.20101L111.05 26L91.2513 45.799C89.8844 47.1658 89.8844 49.3819 91.2513 50.7487C92.6181 52.1156 94.8342 52.1156 96.201 50.7487L118.475 28.4749ZM4 26V29.5H116V26V22.5H4V26Z" fill="#616161"/>
<path d="M116 70.5C117.933 70.5 119.5 68.933 119.5 67C119.5 65.067 117.933 63.5 116 63.5V67V70.5ZM1.52513 64.5251C0.158291 65.892 0.158291 68.108 1.52513 69.4749L23.799 91.7487C25.1658 93.1156 27.3819 93.1156 28.7487 91.7487C30.1156 90.3819 30.1156 88.1658 28.7487 86.799L8.94975 67L28.7487 47.201C30.1156 45.8342 30.1156 43.6181 28.7487 42.2513C27.3819 40.8844 25.1658 40.8844 23.799 42.2513L1.52513 64.5251ZM116 67V63.5L4 63.5V67V70.5L116 70.5V67Z" fill="#616161"/>
</svg>
